<svg width="21" height="20" viewBox="0 0 21 20" fill="none" xmlns="http://www.w3.org/2000/svg">
<path fill-rule="evenodd" clip-rule="evenodd" d="M6.64977 5.28732C6.64978 3.12898 8.37351 1.37931 10.4998 1.37931C12.6261 1.37931 14.3499 3.12898 14.3499 5.28732H6.64977ZM5.29092 5.28732C5.29094 2.36721 7.62304 0 10.4998 0C13.3766 0 15.7087 2.36721 15.7087 5.28732H19.1877C20.3221 5.28732 21.1775 6.33353 20.9685 7.46532L20.0283 16.9996C19.7069 18.7393 18.2105 20 16.4668 20H4.5333C2.78957 20 1.29312 18.7393 0.971775 16.9996L0.031583 7.46533C-0.17748 6.33353 0.677911 5.28732 1.81234 5.28732H5.29092ZM19.1877 6.66663H1.81234C1.52874 6.66663 1.31489 6.92818 1.36715 7.21113L2.30735 16.7455C2.50819 17.8328 3.44347 18.6207 4.5333 18.6207H16.4668C17.5566 18.6207 18.4919 17.8328 18.6927 16.7455L19.6329 7.21113C19.6852 6.92818 19.4713 6.66663 19.1877 6.66663ZM15.2562 9.42517H13.2179C12.8427 9.42517 12.5385 9.73396 12.5385 10.1148C12.5385 10.4957 12.8427 10.8045 13.2179 10.8045H13.5576C13.5576 12.5157 12.1861 13.9079 10.5002 13.9079C8.81435 13.9079 7.44281 12.5157 7.44281 10.8045H7.78252C8.15773 10.8045 8.46195 10.4957 8.46195 10.1148C8.46195 9.73396 8.15773 9.42517 7.78252 9.42517H5.74426C5.36904 9.42517 5.06483 9.73396 5.06483 10.1148C5.06483 10.4957 5.36904 10.8045 5.74426 10.8045H6.08397C6.08397 13.2763 8.06508 15.2872 10.5002 15.2872C12.9353 15.2872 14.9165 13.2763 14.9165 10.8045H15.2562C15.6314 10.8045 15.9356 10.4957 15.9356 10.1148C15.9356 9.73396 15.6314 9.42517 15.2562 9.42517Z" fill="white"/>
</svg>
