<svg width="26" height="24" viewBox="0 0 26 24" fill="none" xmlns="http://www.w3.org/2000/svg">
<path fill-rule="evenodd" clip-rule="evenodd" d="M8.10022 6.34477C8.10025 3.75477 10.1999 1.65517 12.7899 1.65517C15.3799 1.65517 17.4795 3.75477 17.4795 6.34477H8.10022ZM6.44505 6.34477C6.44508 2.84065 9.28574 0 12.7899 0C16.294 0 19.1347 2.84065 19.1347 6.34477H23.372C24.7539 6.34477 25.7958 7.60022 25.5411 8.95837L24.3959 20.3996C24.0045 22.4872 22.1817 23.9999 20.0577 23.9999H5.52189C3.3979 23.9999 1.57512 22.4872 1.18369 20.3996L0.0384704 8.95837C-0.216183 7.60022 0.825746 6.34477 2.20757 6.34477H6.44505ZM23.372 7.99994H2.20757C1.86211 7.99994 1.60163 8.3138 1.66529 8.65335L2.81052 20.0945C3.05516 21.3993 4.1944 22.3448 5.52189 22.3448H20.0577C21.3852 22.3448 22.5244 21.3993 22.7691 20.0945L23.9143 8.65334C23.978 8.31381 23.7175 7.99994 23.372 7.99994ZM18.5829 11.3103H16.1002C15.6431 11.3103 15.2726 11.6809 15.2726 12.1379C15.2726 12.5949 15.6431 12.9655 16.1002 12.9655H16.514C16.514 15.019 14.8433 16.6896 12.7898 16.6896C10.7363 16.6896 9.06567 15.019 9.06567 12.9655H9.47947C9.9365 12.9655 10.3071 12.5949 10.3071 12.1379C10.3071 11.6809 9.9365 11.3103 9.47947 11.3103H6.99671C6.53967 11.3103 6.16912 11.6809 6.16912 12.1379C6.16912 12.5949 6.53967 12.9655 6.99671 12.9655H7.4105C7.4105 15.9317 9.82364 18.3448 12.7898 18.3448C15.756 18.3448 18.1691 15.9317 18.1691 12.9655H18.5829C19.0399 12.9655 19.4105 12.5949 19.4105 12.1379C19.4105 11.6809 19.0399 11.3103 18.5829 11.3103Z" fill="#1A1818"/>
</svg>
