<svg width="24" height="10" viewBox="0 0 24 10" fill="none" xmlns="http://www.w3.org/2000/svg">
<path fill-rule="evenodd" clip-rule="evenodd" d="M0 1C0 0.447715 0.447716 0 1 0H23C23.5523 0 24 0.447715 24 1C24 1.55228 23.5523 2 23 2H1C0.447715 2 0 1.55228 0 1ZM0 5C0 4.44772 0.447716 4 1 4H23C23.5523 4 24 4.44772 24 5C24 5.55228 23.5523 6 23 6H1C0.447715 6 0 5.55228 0 5ZM24 9C24 8.44771 23.5523 8 23 8H1C0.447715 8 0 8.44771 0 9C0 9.55229 0.447716 10 1 10H23C23.5523 10 24 9.55229 24 9Z" fill="white"/>
</svg>
