<svg width="12" height="12" viewBox="0 0 12 12" fill="none" xmlns="http://www.w3.org/2000/svg">
<path d="M10.8348 1.3335H1.15195C0.970719 1.3335 0.802435 1.37233 0.647095 1.45L5.99337 5.78657L11.3397 1.45C11.1843 1.37233 11.029 1.3335 10.8348 1.3335Z" fill="white"/>
<path d="M6.35599 6.97729C6.25243 7.06791 6.12298 7.10674 5.99353 7.10674C5.86408 7.10674 5.73463 7.06791 5.63107 6.97729L0 2.40771C0 2.4336 0 2.44655 0 2.48538V9.51451C0 10.1488 0.517799 10.6666 1.1521 10.6666H10.8479C11.4822 10.6666 12 10.1488 12 9.51451V2.48538C12 2.45949 12 2.44655 12 2.40771L6.35599 6.97729Z" fill="white"/>
</svg>
