<svg width="16" height="16" viewBox="0 0 16 16" fill="none" xmlns="http://www.w3.org/2000/svg">
<path d="M14.6915 1.96377C13.864 1.07423 12.7043 0.568101 11.4893 0.566225C10.2734 0.567632 9.11252 1.0735 8.28366 1.9632L8.00117 2.2617L7.71869 1.9632C6.07401 0.193074 3.30572 0.0914186 1.53562 1.7361C1.45719 1.80901 1.38143 1.88473 1.30852 1.9632C-0.436174 3.84507 -0.436174 6.75341 1.30852 8.63528L7.58604 15.2553C7.80322 15.4846 8.16515 15.4944 8.39443 15.2772C8.40193 15.2701 8.40924 15.2628 8.41634 15.2553L14.6916 8.63528C16.4361 6.75361 16.4361 3.84544 14.6915 1.96377ZM13.8641 7.84787H13.8636L8.00117 14.031L2.13825 7.84787C0.805405 6.40995 0.805405 4.18797 2.13825 2.75004C3.34864 1.43817 5.39338 1.35592 6.70525 2.5663C6.76894 2.62507 6.83022 2.68635 6.88899 2.75004L7.58604 3.48542C7.81575 3.71366 8.18663 3.71366 8.41634 3.48542L9.11339 2.75061C10.3238 1.43874 12.3685 1.35648 13.6804 2.56687C13.7441 2.62564 13.8054 2.68692 13.8641 2.75061C15.2086 4.19081 15.2184 6.41685 13.8641 7.84787Z" fill="#D3D3D3"/>
</svg>
