<svg width="12" height="12" viewBox="0 0 12 12" fill="none" xmlns="http://www.w3.org/2000/svg">
<path d="M5.99968 0C3.60331 0 1.65373 1.94958 1.65373 4.34592C1.65373 7.31986 5.54293 11.6858 5.70851 11.8702C5.86404 12.0434 6.13559 12.0431 6.29084 11.8702C6.45643 11.6858 10.3456 7.31986 10.3456 4.34592C10.3456 1.94958 8.39602 0 5.99968 0ZM5.99968 6.53248C4.79401 6.53248 3.81315 5.55159 3.81315 4.34592C3.81315 3.14025 4.79403 2.15939 5.99968 2.15939C7.20533 2.15939 8.18618 3.14027 8.18618 4.34595C8.18618 5.55162 7.20533 6.53248 5.99968 6.53248Z" fill="white"/>
</svg>
