<svg width="25" height="24" viewBox="0 0 25 24" fill="none" xmlns="http://www.w3.org/2000/svg">
<path fill-rule="evenodd" clip-rule="evenodd" d="M12.3188 0H12.009L11.7147 0.123374L7.2072 4.58024C7.01358 4.8347 7.07941 5.02747 7.40082 5.02747H9.39511C9.7204 5.02747 9.97598 5.28192 9.97598 5.60192V8.90987C9.97598 9.22987 10.2354 9.48433 10.5568 9.48433H13.8368C14.224 9.48433 14.4835 9.22987 14.4835 8.90987V5.60192C14.4835 5.28192 14.739 5.02747 15.0605 5.02747H16.927C17.2484 5.02747 17.3142 4.8347 17.1206 4.58024L12.617 0.123374L12.3188 0ZM19.7642 7.25591C19.6674 7.12868 19.5706 7.08242 19.497 7.10555C19.4234 7.12868 19.3769 7.22507 19.3769 7.38314V16.4858C19.3769 16.6477 19.4234 16.7595 19.497 16.7981C19.5706 16.8366 19.6674 16.8058 19.7642 16.6786L24.14 12.3489C24.3956 12.16 24.3956 11.7745 24.14 11.52L19.7642 7.25591ZM4.95475 7.00915C5.03608 7.0477 5.08642 7.15951 5.08642 7.32143V16.613C5.08642 16.7749 5.03608 16.8713 4.95475 16.9022C4.87731 16.933 4.76501 16.9022 4.63334 16.8058L0.191685 12.3489C-0.0638948 12.16 -0.0638948 11.7744 0.191685 11.52L4.63334 7.12866C4.76501 7.00143 4.87731 6.97059 4.95475 7.00915ZM13.8378 14.3229H10.5579C10.2365 14.3229 9.97704 14.5773 9.97704 14.8973V18.398C9.97704 18.7797 9.72146 19.0342 9.39618 19.0342H7.52967C7.20826 19.0342 7.08047 19.2231 7.33993 19.4159L11.7158 23.8072C11.8435 23.9344 12.0062 24 12.165 24C12.3276 24 12.4864 23.9344 12.618 23.8072L16.9939 19.4159C17.2494 19.2231 17.1216 19.0342 16.8002 19.0342H15.0615C14.7401 19.0342 14.4845 18.7797 14.4845 18.398V14.8973C14.4845 14.5773 14.2251 14.3229 13.8378 14.3229Z" fill="#D20008"/>
</svg>
