<svg width="20" height="20" viewBox="0 0 20 20" fill="none" xmlns="http://www.w3.org/2000/svg">
<path d="M8.29156 11.71C6.38059 9.79906 5.94911 7.8881 5.85177 7.12247C5.82456 6.91077 5.89742 6.69847 6.04887 6.54808L7.59531 5.00233C7.82279 4.77498 7.86316 4.42068 7.69265 4.14799L5.23043 0.324683C5.04179 0.0227294 4.65446 -0.0862487 4.33604 0.073041L0.383295 1.93464C0.125805 2.06143 -0.0256469 2.33501 0.00358823 2.62053C0.210701 4.5881 1.06849 9.42488 5.82173 14.1785C10.575 18.932 15.4111 19.7895 17.3797 19.9966C17.6652 20.0258 17.9388 19.8744 18.0656 19.6169L19.9272 15.6642C20.0858 15.3464 19.9776 14.9601 19.6769 14.7711L15.8536 12.3096C15.5811 12.1389 15.2268 12.179 14.9993 12.4063L13.4535 13.9527C13.3031 14.1042 13.0908 14.177 12.8791 14.1498C12.1135 14.0525 10.2025 13.621 8.29156 11.71Z" fill="white"/>
</svg>
