<svg width="24" height="24" viewBox="0 0 24 24" fill="none" xmlns="http://www.w3.org/2000/svg">
<path d="M20.2969 24C19.7791 24 19.3594 23.5803 19.3594 23.0625C19.3594 19.3922 16.3734 16.4062 12.7031 16.4062H11.2969C7.62661 16.4062 4.64062 19.3922 4.64062 23.0625C4.64062 23.5803 4.22091 24 3.70312 24C3.18534 24 2.76562 23.5803 2.76562 23.0625C2.76562 18.3584 6.59273 14.5312 11.2969 14.5312H12.7031C17.4073 14.5312 21.2344 18.3584 21.2344 23.0625C21.2344 23.5803 20.8147 24 20.2969 24Z" fill="#1A1818"/>
<path d="M11.9062 12.6562C8.41692 12.6562 5.57812 9.81745 5.57812 6.32812C5.57812 2.8388 8.41692 0 11.9062 0C15.3956 0 18.2344 2.8388 18.2344 6.32812C18.2344 9.81745 15.3956 12.6562 11.9062 12.6562ZM11.9062 1.875C9.4508 1.875 7.45312 3.87267 7.45312 6.32812C7.45312 8.78358 9.4508 10.7812 11.9062 10.7812C14.3617 10.7812 16.3594 8.78358 16.3594 6.32812C16.3594 3.87267 14.3617 1.875 11.9062 1.875Z" fill="#1A1818"/>
</svg>
